<?xml version="1.0" encoding="UTF-8" standalone="no"?>
<!DOCTYPE svg PUBLIC "-//W3C//DTD SVG 1.1//EN" "http://www.w3.org/Graphics/SVG/1.1/DTD/svg11.dtd">
<svg width="100%" height="100%" viewBox="0 0 2836 1182" version="1.1" xmlns="http://www.w3.org/2000/svg" xmlns:xlink="http://www.w3.org/1999/xlink" xml:space="preserve" xmlns:serif="http://www.serif.com/" style="fill-rule:evenodd;clip-rule:evenodd;stroke-linejoin:round;stroke-miterlimit:2;">
    <g transform="matrix(1,0,0,1,-2611,-70)">
        <g id="ginko_light" transform="matrix(0.808081,0,0,0.47619,2611.44,70.3816)">
            <rect x="0" y="0" width="3507.87" height="2480.32" style="fill:none;"/>
            <g transform="matrix(3.31959e-16,9.19978,-5.4213,5.63324e-16,1397.15,-148.32)">
                <path d="M164,227L164.507,214.091C164.452,210.262 164.204,198.323 163.434,197.86C162.223,195.302 161.583,215.115 161,225C160.687,230.315 160.31,234.29 159,239C158.524,240.71 156.228,240.293 149.543,238.745C129.933,232.233 135.028,220.845 135.461,218.925C137.577,209.535 141.277,196.214 143.122,186.767C150.463,149.177 148.026,149.456 148,145C147.99,143.26 147.22,142.1 147,141C146.51,170.38 138.08,200.46 130,228L123,228C114.543,229.03 89.748,217.311 87.698,212.035C85.255,205.745 98.622,192.378 100,191C115.544,174.475 125.781,160.258 133,145C133.376,144.095 132.312,143.581 132,144C122.668,162.268 109.255,176.074 106.875,178.524C99.097,186.529 90.553,193.782 83,202C78.157,198.083 72.007,196.082 66.896,192.521C65.312,191.418 53.815,183.407 56,171C78.27,161.89 99.7,150.41 118,134L120.297,131.703C123.873,128.532 138.861,110.978 142.19,105.268C145.26,100.001 147.3,95.35 149,90C149.246,88.832 148.237,88.375 148,89C147.491,91.34 130.744,138.023 57,166C56.53,159.77 47.43,158.33 46,152C41.315,142.63 47.344,140.962 42,132C70.517,126.374 96.975,121.024 123.119,107.434C129.774,103.075 145.239,89.792 142,90C136.683,98.835 88.196,124.861 39.392,129.181C31.787,124.357 25.479,95.471 62,99C94.62,99 139.69,98.96 153,64C156.582,54.592 162.249,73.592 166,80C167.638,82.799 171.538,87.007 175,89C182.24,93.82 191.26,96 200,96L221,96C222.67,96 224.33,96.01 226,96C234.049,95.141 235.215,94.958 242.216,94.52C247.909,94.165 250.397,94.36 254.984,94.74C261.926,95.313 267.91,98.701 268,99C258.42,102.31 239.592,103.592 239.26,105.239C241.272,106.607 260.684,102.223 269.661,102.212C272.277,102.209 263.986,125.255 259.986,126.997C251.68,130.612 228.728,123.257 226,123C221.597,121.858 222.651,123.292 225,124C236.9,127.42 249.2,129.29 261,133C257.02,139.92 268.48,145.79 262,152C256.122,159.785 250.099,152.085 246,161C228.228,147.151 205.741,140.834 188,127C183.355,123.028 179.202,118.481 175.277,113.795C170.501,108.091 167.906,103.42 163.13,97.716C164.223,103.612 172.559,119.969 193.827,133.214C216.838,147.544 217.668,145.911 240.415,160.499C243.266,162.327 243.059,170.901 242.257,176.2C242.028,177.706 241.394,187.177 233,193C224.72,171.08 199.37,162.14 185,145C182.041,141.881 182.17,143.68 184,146C186.76,148.96 189.723,152.408 192.543,155.228C215.335,174.693 216.193,173.895 226,184C226.705,184.726 230.692,188.835 230,196C222.55,199.62 218.47,206.58 211,211C198.853,186.208 176.369,166.698 169,140C167.569,146.416 182.069,171.286 183.642,173.811C189.543,183.288 196.542,192.635 202.793,201.885C205.126,205.338 209.4,210.579 206.021,214.401C180.448,224.896 160.945,259.252 164,227Z" style="fill:rgb(77,109,213);"/>
            </g>
            <g transform="matrix(1.2375,0,0,2.1,-843.794,-4572.32)">
                <g transform="matrix(750,0,0,750,3453.35,2982.29)">
                </g>
                <text x="1645.85px" y="2982.29px" style="font-family:'GTPressuraTrial-ExtRg', 'GT Pressura Trial';font-stretch:semi-expanded;font-size:750px;fill:rgb(23,21,19);">g<tspan x="2073.35px 2236.85px 2658.35px 2995.85px " y="2982.29px 2982.29px 2982.29px 2982.29px ">inko</tspan></text>
            </g>
        </g>
    </g>
</svg>
