<svg width="369" height="77" viewBox="0 0 369 77" fill="none" xmlns="http://www.w3.org/2000/svg">
<g clip-path="url(#clip0_1856_51)">
<path d="M94.344 64.224C87.216 64.224 85.776 60.696 83.544 60.696C81.528 60.696 81.888 63 79.944 63H76.2C75.408 63 74.76 62.352 74.76 61.56V12.6C74.76 11.808 75.408 11.16 76.2 11.16H81.528C82.32 11.16 82.968 11.808 82.968 12.6V26.352C82.968 27.432 83.4 27.864 84.336 27.864C86.208 27.864 87.72 25.056 94.344 25.056C99.384 25.056 103.56 26.856 106.44 30.024C109.68 33.48 111.48 38.592 111.48 44.64C111.48 50.688 109.68 55.8 106.44 59.256C103.56 62.496 99.384 64.224 94.344 64.224ZM82.68 44.64C82.68 47.88 83.544 50.688 85.128 52.704C86.856 54.792 89.448 56.088 92.832 56.088C96.216 56.088 98.88 54.792 100.536 52.704C102.192 50.688 103.056 47.88 103.056 44.64C103.056 41.4 102.192 38.592 100.536 36.648C98.88 34.488 96.216 33.192 92.832 33.192C89.448 33.192 86.856 34.488 85.128 36.648C83.544 38.592 82.68 41.4 82.68 44.64ZM133.416 64.224C121.824 64.224 115.416 56.304 115.416 44.64C115.416 33.048 121.896 25.056 133.2 25.056C144 25.056 150.768 31.752 150.768 42.912V45.504C150.768 46.8 149.976 47.448 148.896 47.448H124.992C124.56 47.448 124.272 47.736 124.272 48.24C124.488 54 128.52 57.24 133.416 57.24C137.232 57.24 139.608 55.728 141.048 53.208C141.552 52.344 142.056 51.912 142.848 51.912H148.392C149.184 51.912 149.976 52.56 149.688 53.64C147.888 59.76 142.2 64.224 133.416 64.224ZM124.2 40.176C124.2 40.608 124.488 40.896 124.992 40.896H141.696C142.128 40.896 142.344 40.608 142.344 40.176C142.344 35.64 138.888 31.824 133.2 31.824C127.872 31.824 124.416 35.64 124.2 40.176ZM172.583 64.224C160.991 64.224 154.583 56.304 154.583 44.64C154.583 33.048 161.063 25.056 172.367 25.056C183.167 25.056 189.935 31.752 189.935 42.912V45.504C189.935 46.8 189.143 47.448 188.063 47.448H164.159C163.727 47.448 163.439 47.736 163.439 48.24C163.655 54 167.687 57.24 172.583 57.24C176.399 57.24 178.775 55.728 180.215 53.208C180.719 52.344 181.223 51.912 182.015 51.912H187.559C188.351 51.912 189.143 52.56 188.855 53.64C187.055 59.76 181.367 64.224 172.583 64.224ZM163.367 40.176C163.367 40.608 163.655 40.896 164.159 40.896H180.863C181.295 40.896 181.511 40.608 181.511 40.176C181.511 35.64 178.055 31.824 172.367 31.824C167.039 31.824 163.583 35.64 163.367 40.176ZM210.315 63.72C201.747 63.72 195.843 59.472 195.843 52.56C195.843 51.768 196.491 51.192 197.283 51.192H198.867C199.659 51.192 200.307 51.768 200.307 52.56C200.307 56.88 204.411 59.472 210.315 59.472C216.363 59.472 219.531 56.664 219.531 53.136C219.531 50.472 218.163 48.528 213.843 47.808L206.139 46.512C199.875 45.432 196.923 41.832 196.923 36.936C196.923 31.032 202.611 27 210.315 27C217.875 27 223.491 30.96 223.491 36.864C223.491 37.656 222.843 38.304 222.051 38.304H220.467C219.675 38.304 219.027 37.656 219.027 36.864C219.027 33.408 215.715 31.248 210.315 31.248C204.627 31.248 201.387 33.48 201.387 36.936C201.387 39.744 203.187 41.616 208.227 42.408L214.419 43.416C221.043 44.496 223.995 48.024 223.995 53.136C223.995 59.04 218.883 63.72 210.315 63.72ZM233.701 75.96C232.909 75.96 232.261 75.312 232.261 74.52V29.16C232.261 28.368 232.909 27.72 233.701 27.72H234.925C236.365 27.72 236.077 29.664 237.517 29.664C239.461 29.664 240.829 27 246.301 27C251.269 27 255.373 29.304 257.749 33.336C259.549 36.144 259.981 39.024 259.981 45.36C259.981 51.696 259.549 54.576 257.749 57.384C255.373 61.416 251.197 63.72 246.157 63.72C241.117 63.72 239.605 61.2 238.021 61.2C237.013 61.2 236.581 61.848 236.581 63.36V74.52C236.581 75.312 235.933 75.96 235.141 75.96H233.701ZM236.437 45.36C236.437 50.184 236.509 52.128 237.445 54.144C238.957 57.384 242.197 59.472 245.941 59.472C249.685 59.472 252.925 57.384 254.437 54.144C255.445 52.128 255.517 50.184 255.517 45.36C255.517 40.536 255.445 38.592 254.437 36.576C252.925 33.336 249.685 31.248 245.941 31.248C242.197 31.248 238.957 33.336 237.445 36.576C236.509 38.592 236.437 40.536 236.437 45.36ZM278.687 63.72C270.263 63.72 266.303 58.536 266.303 52.704C266.303 46.584 270.335 41.904 277.463 41.904H287.759C288.191 41.904 288.479 41.616 288.479 41.184V38.88C288.479 34.488 286.031 31.248 280.415 31.248C274.943 31.248 272.207 33.912 272.207 37.08C272.207 38.16 271.415 38.304 270.695 38.304H269.399C268.319 38.304 267.959 37.728 267.959 36.864C267.959 31.032 273.071 27 280.415 27C288.047 27 292.799 31.248 292.799 38.952V61.56C292.799 62.352 292.151 63 291.359 63H290.135C288.695 63 288.983 61.056 287.543 61.056C285.599 61.056 284.231 63.72 278.687 63.72ZM270.767 52.632C270.767 57.24 274.511 59.472 278.687 59.472C284.951 59.472 288.479 56.376 288.479 50.688V46.872C288.479 46.44 288.191 46.152 287.759 46.152H277.823C273.791 46.152 270.767 48.384 270.767 52.632ZM316.689 63.72C311.145 63.72 306.897 61.2 304.305 57.384C302.001 54 301.929 50.4 301.929 45.36C301.929 40.248 302.001 36.72 304.305 33.336C306.897 29.52 311.145 27 316.689 27C324.465 27 330.225 31.752 330.225 38.304C330.225 39.024 329.793 39.672 329.001 39.672H327.129C326.409 39.672 325.689 39.312 325.689 38.52C325.689 34.272 322.017 31.248 316.689 31.248C312.729 31.248 309.273 33.12 307.617 36.576C306.465 38.808 306.393 41.256 306.393 45.36C306.393 49.464 306.465 51.912 307.617 54.144C309.273 57.6 312.729 59.472 316.689 59.472C322.017 59.472 325.689 56.448 325.689 52.2C325.689 51.408 326.409 51.048 327.129 51.048H329.001C329.793 51.048 330.225 51.696 330.225 52.416C330.225 58.968 324.537 63.72 316.689 63.72ZM351.379 63.72C341.803 63.72 336.691 57.816 336.691 45.36C336.691 33.264 341.371 27 351.235 27C360.307 27 365.563 33.048 365.563 42.84V45.36C365.563 46.152 364.915 46.8 364.123 46.8H342.019C341.587 46.8 341.299 47.088 341.299 47.448C341.299 55.872 345.691 59.472 351.379 59.472C355.627 59.472 358.651 58.32 360.163 53.64C360.379 52.92 361.027 52.416 361.819 52.416H363.259C364.123 52.416 364.627 52.992 364.483 53.856C363.403 60.048 358.291 63.72 351.379 63.72ZM341.371 41.832C341.371 42.264 341.659 42.552 342.091 42.552H360.307C360.739 42.552 361.027 42.264 361.027 41.832C361.027 35.568 357.643 31.248 351.307 31.248C344.899 31.248 341.371 35.568 341.371 41.832Z" fill="black"/>
<path d="M14.7202 29.9669L29.5 21.4338L44.2798 29.9669V47.0331L29.5 55.5662L14.7202 47.0331V29.9669Z" fill="#FFDC26" stroke="#FFDC26" stroke-width="25"/>
</g>
<defs>
<clipPath id="clip0_1856_51">
<rect width="369" height="77" fill="white"/>
</clipPath>
</defs>
</svg>
